<svg width="10" height="10" viewBox="0 0 54 90" fill="none" xmlns="http://www.w3.org/2000/svg">
<path d="M6.3 16.2C5.23333 16.2 4.16667 16.0667 3.1 15.8C2.1 15.4667 1.23333 15.0667 0.5 14.6C1.56667 13.7333 2.4 12.6 3 11.2C3.6 9.73333 3.9 8.09999 3.9 6.29999C3.9 5.09999 3.8 3.99999 3.6 2.99999C3.4 1.93333 3.23333 1.16666 3.1 0.699995H50.6C50.4667 1.16666 50.3 1.93333 50.1 2.99999C49.9 3.99999 49.8 5.09999 49.8 6.29999C49.8 8.09999 50.1 9.73333 50.7 11.2C51.3 12.6 52.1333 13.7333 53.2 14.6C52.5333 15.0667 51.6667 15.4667 50.6 15.8C49.6 16.0667 48.5333 16.2 47.4 16.2C44.5333 16.2 42.3667 15.4 40.9 13.8C39.4333 12.2 38.7 10.2667 38.7 8C38.7 7.53333 38.7 7.13333 38.7 6.79999C38.7667 6.39999 38.8333 6.03333 38.9 5.7H14.8C14.8667 6.03333 14.9 6.39999 14.9 6.79999C14.9667 7.13333 15 7.53333 15 8C15 10.2667 14.2667 12.2 12.8 13.8C11.4 15.4 9.23333 16.2 6.3 16.2ZM6.3 89.5C5.23333 89.5 4.16667 89.3333 3.1 89C2.1 88.7333 1.23333 88.3667 0.5 87.9C1.56667 87.0333 2.4 85.8667 3 84.4C3.6 83 3.9 81.4 3.9 79.6C3.9 78.4 3.8 77.3 3.6 76.3C3.4 75.2333 3.23333 74.4667 3.1 74H50.6C50.4667 74.4667 50.3 75.2333 50.1 76.3C49.9 77.3 49.8 78.4 49.8 79.6C49.8 81.4 50.1 83 50.7 84.4C51.3 85.8667 52.1333 87.0333 53.2 87.9C52.5333 88.3667 51.6667 88.7333 50.6 89C49.6 89.3333 48.5333 89.5 47.4 89.5C44.5333 89.5 42.3667 88.7 40.9 87.1C39.4333 85.5 38.7 83.5667 38.7 81.3C38.7 80.8333 38.7 80.4 38.7 80C38.7667 79.6667 38.8333 79.3333 38.9 79H14.8C14.8667 79.3333 14.9 79.6667 14.9 80C14.9667 80.4 15 80.8333 15 81.3C15 83.5667 14.2667 85.5 12.8 87.1C11.4 88.7 9.23333 89.5 6.3 89.5ZM24.1 65.4C19.0333 65.4 15.1 64.4333 12.3 62.5C9.56667 60.5667 8.2 57.5667 8.2 53.5C8.2 51.0333 8.76667 48.8 9.9 46.8C11.0333 44.7333 12.3667 42.3667 13.9 39.7L16.2 35.8C17.0667 34.3333 17.7 32.8667 18.1 31.4C18.5 29.9333 18.7 28.8 18.7 28C18.7 27.1333 18.4667 26.5 18 26.1C17.5333 25.6333 16.8 25.4 15.8 25.4V21.9L27.7 21.1C28.0333 21.7667 28.3 22.4667 28.5 23.2C28.7 23.9333 28.8 24.7667 28.8 25.7C28.8 27.7 28.4 29.8667 27.6 32.2C26.8 34.5333 25.5 37.1 23.7 39.9C22.0333 42.5 20.5333 44.9 19.2 47.1C17.9333 49.2333 17.3 51.5667 17.3 54.1C17.3 56.3667 18.0667 58.1333 19.6 59.4C21.2 60.6667 23.4333 61.3 26.3 61.3C29.8333 61.3 32.4333 60.3667 34.1 58.5C35.7667 56.5667 36.6 54 36.6 50.8C36.6 48.8667 36.2 47.2333 35.4 45.9C34.6 44.5 33 43.4333 30.6 42.7C28.2667 41.9667 24.7 41.6 19.9 41.6L22 37.5C28.2 37.5 33 38 36.4 39C39.8 39.9333 42.1667 41.3667 43.5 43.3C44.9 45.2333 45.6 47.6 45.6 50.4C45.6 53.9333 44.7 56.8 42.9 59C41.1667 61.2 38.8667 62.8333 36 63.9C33.1333 64.9 29.9667 65.4 26.5 65.4H24.1Z" fill="url(#paint0_linear_2_8)"/>
<defs>
<linearGradient id="paint0_linear_2_8" x1="27" y1="-28" x2="27" y2="108" gradientUnits="userSpaceOnUse">
<stop stop-color="#05FF00"/>
<stop offset="1" stop-color="#FF0000"/>
</linearGradient>
</defs>
</svg>
